<svg width="1024" height="1024" viewBox="0 0 1024 1024" fill="none" xmlns="http://www.w3.org/2000/svg">
<rect width="1024" height="1024" rx="3" fill="#F2EDE4"/>
<path d="M552.064 655.526C552.064 765.685 462.763 854.986 352.604 854.986C242.446 854.986 153.145 765.685 153.145 655.526C153.145 545.368 242.446 456.067 352.604 456.067C462.763 456.067 552.064 545.368 552.064 655.526Z" fill="#B4A08C"/>
<path d="M425.135 285.62C378.765 272.121 146.38 500.965 153.145 659.153L425.135 477.826C378.14 410.079 471.505 299.118 425.135 285.62Z" fill="#B4A08C"/>
<path d="M472.137 368.46C472.137 258.301 561.438 169 671.597 169C781.755 169 871.056 258.301 871.056 368.46C871.056 478.618 781.755 567.919 671.597 567.919C561.438 567.919 472.137 478.618 472.137 368.46Z" fill="#8C6450"/>
<path d="M599.066 738.366C645.435 751.865 877.821 523.021 871.056 364.833L599.066 546.16C646.061 613.907 552.696 724.867 599.066 738.366Z" fill="#8C6450"/>
</svg>
